<svg id="Layer_1" data-name="Layer 1" xmlns="http://www.w3.org/2000/svg" width="180" height="105.36" viewBox="0 0 180 105.36"><defs><style>.cls-1{fill:#c10230;}.cls-2{fill:#003055;}.cls-3{fill:#221f1f;}</style></defs><title>medicalpartnership_LOGO-180</title><path class="cls-1" d="M139.28,95.7h0a4.74,4.74,0,1,0,4.84,4.64h0a4.63,4.63,0,0,0-4.61-4.63h-.22m2.55,5c0,2.26-1,3.57-2.46,3.57-1.7,0-2.94-1.65-2.94-4.09,0-2.21,1.06-3.57,2.56-3.57h0c1.78,0,2.83,1.53,2.83,4.12"/><path class="cls-1" d="M95.2,95.7h0a4.78,4.78,0,0,0-5.11,4.42c0,.1,0,.21,0,.31a5,5,0,1,0,10-.1,4.63,4.63,0,0,0-4.6-4.63H95.2m2.54,5c0,2.26-1,3.71-2.46,3.71-1.7,0-2.93-1.78-2.93-4.22,0-2.2,1.05-3.73,2.57-3.73h0c1.78,0,2.81,1.66,2.81,4.24"/><path class="cls-1" d="M123,101.17v3.46l-.36.07a13.29,13.29,0,0,1-2.87.44c-3.37,0-5.55-1.78-5.55-4.64,0-3.32,2.87-4.81,5.55-4.81a14.59,14.59,0,0,1,2.92.48v2.19a3.24,3.24,0,0,0-2.86-1.78,3.18,3.18,0,0,0-3.09,2.18,5.13,5.13,0,0,0-.24,1.51c0,2.86,1.71,4,3.4,4a1.82,1.82,0,0,0,.8-.16.79.79,0,0,0,.3-.71v-1.9a1.59,1.59,0,0,0-.89-1.53h3.51s-.61.15-.61,1.2"/><path class="cls-1" d="M163.66,101.17v3.46l-.37.07a13.48,13.48,0,0,1-2.89.45c-3.36,0-5.53-1.78-5.53-4.64,0-3.32,2.86-4.81,5.53-4.81a14.78,14.78,0,0,1,2.94.48v2.19a3.29,3.29,0,0,0-2.88-1.78,3.18,3.18,0,0,0-3.08,2.18,4.76,4.76,0,0,0-.24,1.5c0,2.87,1.71,4,3.4,4a1.86,1.86,0,0,0,.8-.17.75.75,0,0,0,.29-.7V101.5a1.58,1.58,0,0,0-.89-1.52h3.51s-.6.15-.6,1.2"/><path class="cls-1" d="M32.6,95.88c.53.23.41,1,.18,1.5-.1.31-1.36,3.33-2,4.73-.21-.61-1.6-4.59-1.7-4.79a1.21,1.21,0,0,1,.28-1.42H25.78c.79.48,1,.94,1.42,2.1.8,1.94,1.78,4.7,2.67,6.89v0h.95l2.88-7a4.2,4.2,0,0,1,1.52-2.07Z"/><path class="cls-1" d="M42,103.53c-.45.51-1.67.49-1.85.49a2.93,2.93,0,0,1-1.14-.13c-.25-.1-.29-.42-.29-1v-2H39.8c1,0,1.68.06,1.88.55V99.29c-.19.49-.89.58-1.88.58H38.68V97a.18.18,0,0,1,.18-.18h1.65a1.78,1.78,0,0,1,1.6.54,4.24,4.24,0,0,1,.56,1.05V95.88H35.88a2.27,2.27,0,0,1,.81,2.05v4.9c0,1.78-.89,2.1-.89,2.1h7v-2.68a7.51,7.51,0,0,1-.89,1.28"/><path class="cls-1" d="M129.6,104a3,3,0,0,1-1.15-.13c-.24-.1-.29-.41-.29-1.05v-2h1.12c1,0,1.69.07,1.9.55V99.28c-.2.49-.89.58-1.9.58h-1.11V97.18c0-.39,0-.39.51-.39H130a1.78,1.78,0,0,1,1.56.54,4.15,4.15,0,0,1,.55,1V95.88h-6.81a2.34,2.34,0,0,1,.76,2.05v4.9c0,1.78-.89,2.1-.89,2.1h7v-2.68a6.49,6.49,0,0,1-.79,1.28c-.47.5-1.67.48-1.85.48"/><path class="cls-1" d="M169.6,104.93s-.89-.36-.89-2.1v-4.9c0-1.4.56-1.91.8-2.05H166a2.34,2.34,0,0,1,.76,2.05v4.9c0,1.78-.89,2.1-.89,2.1Z"/><path class="cls-1" d="M19.76,104.93s-.89-.36-.89-2.1v-4.9a2.34,2.34,0,0,1,.76-2.05H17.14a2.29,2.29,0,0,1,.8,2.05v3.65l-5-5.72H10.69a2.35,2.35,0,0,1,.76,2v4.9c0,1.79-.89,2.1-.89,2.1h2.67s-.89-.36-.89-2.1v-4.3l5.35,6.4Z"/><path class="cls-1" d="M66,104.93s-.9-.36-.9-2.1v-4.9a2.33,2.33,0,0,1,.81-2.05H62.38a2.31,2.31,0,0,1,.79,2.05v4.9c0,1.78-.89,2.1-.89,2.1Z"/><path class="cls-1" d="M25.08,104.93s-.89-.36-.89-2.1v-4.9A2.34,2.34,0,0,1,25,95.88h-3.5a2.29,2.29,0,0,1,.8,2.05v4.9c0,1.78-.89,2.1-.89,2.1Z"/><path class="cls-1" d="M180,104.93c-.8-.49-1-1-1.43-2.1-.74-1.94-1.79-4.71-2.63-6.9v-.05h-1.09l-2.87,7a4.2,4.2,0,0,1-1.53,2.06h2.67c-.55-.22-.43-.93-.2-1.5a7.47,7.47,0,0,1,.4-1h3c.2.57.36,1,.38,1.06a1.21,1.21,0,0,1-.28,1.42Zm-6.24-3.52,1.17-2.79,1,2.79Z"/><path class="cls-1" d="M57.86,99.36c-1.3-.62-1.78-1-1.78-1.79a1.17,1.17,0,0,1,1.14-1.21h.18A2.58,2.58,0,0,1,59.89,98V96a9.2,9.2,0,0,0-2.33-.36c-2,0-3.28,1.15-3.28,2.67s1.2,2.17,2.67,2.9c1.08.52,1.67.89,1.67,1.69a1.24,1.24,0,0,1-1.08,1.32h-.22A3.44,3.44,0,0,1,54.4,102v2.3a8.42,8.42,0,0,0,1.28.53,5,5,0,0,0,1.39.22c2,0,3.51-1,3.51-2.82,0-1.37-1.23-2.25-2.76-3"/><path class="cls-1" d="M105.37,104.93s-.89-.36-.89-2.1v-1.92h1.11c1,0,1.7,0,1.89.54V99.29c-.18.49-.89.58-1.89.58h-1.1V97.2c0-.4,0-.4.49-.4h1.34a1.9,1.9,0,0,1,1.6.54,4.15,4.15,0,0,1,.55,1v-2.5h-6.78a2.29,2.29,0,0,1,.8,2.05v4.9c0,1.78-.89,2.1-.89,2.1Z"/><path class="cls-1" d="M72.37,97.18c0-.4,0-.4.5-.4h.42a1.8,1.8,0,0,1,1.61.54,4.78,4.78,0,0,1,.55,1.05V95.88H67.31v2.46a3.44,3.44,0,0,1,.56-1,1.67,1.67,0,0,1,1.55-.55h.42c.5,0,.5,0,.5.4v5.6c0,1.78-.89,2.1-.89,2.1h3.73s-.89-.35-.89-2.1Z"/><path class="cls-1" d="M7.44,100.88V97.93c0-1.4-.56-1.91-.8-2.05H9.31c-.21.14-.76.65-.76,2.05v2.87s.36,4.25-3.55,4.35c0,0-4,.23-4-3.2V98c0-1.39-.55-1.91-.8-2H3.72a2.32,2.32,0,0,0-.79,2v3.43c0,2.88,2.18,2.81,2.18,2.81s2.29.42,2.29-3.29"/><path class="cls-1" d="M81.6,95.91s1.07.55.68,1.39L80.94,100l-1.41-2.56A1.09,1.09,0,0,1,79.94,96H76a4.15,4.15,0,0,1,1.48,1.55l2,3.45v2c0,1.79-.89,2.1-.89,2.1h3.67s-.89-.36-.89-2.1v-2.1l1.69-3.2a4,4,0,0,1,1.78-1.78Z"/><path class="cls-1" d="M49.9,98.49a2,2,0,0,1-.65,1.6h0a2.16,2.16,0,0,1-1.35.34h-.27v-3.3c0-.24,0-.38.09-.43a.88.88,0,0,1,.59-.12c.75,0,1.6.5,1.6,1.89m1.78,4.4c-.41-.65-1-1.6-1.31-2.19A2.39,2.39,0,0,0,52,98.47h0v-.19a2.26,2.26,0,0,0-1-1.89,4.5,4.5,0,0,0-2.57-.53H44.88a2.29,2.29,0,0,1,.79,2v4.9c0,1.79-.89,2.11-.89,2.11h3.66s-.89-.36-.89-2.11V101h.28a.9.9,0,0,1,.89.54l.41.72c.26.47.58,1.1.81,1.47.56.89,1,1.25,2.76,1.18h.53a7.69,7.69,0,0,1-1.6-2.11"/><path class="cls-1" d="M150.78,98.49a1.87,1.87,0,0,1-.64,1.6h0a2,2,0,0,1-1.35.34h-.27V97.17c0-.25,0-.37.09-.43a1,1,0,0,1,.6-.14c.77,0,1.61.5,1.61,1.91m1.78,4.38c-.39-.65-1-1.59-1.31-2.18a2.39,2.39,0,0,0,1.6-2.2h0a.74.74,0,0,0,0-.21,2.24,2.24,0,0,0-.95-1.88,4.45,4.45,0,0,0-2.63-.52h-3.52a2.24,2.24,0,0,1,.79,2v4.9c0,1.78-.89,2.09-.89,2.09h3.67s-.9-.35-.9-2.09v-1.78h.28a.89.89,0,0,1,.89.53l.41.72c.25.48.58,1.11.8,1.48.56.89,1,1.24,2.77,1.19h.55a8.14,8.14,0,0,1-1.61-2.12"/><path class="cls-2" d="M14.93,8.54l.89.8H12.25l.89-.8-.8-2H8.78L8,8.54l.89.8H6.14L7,8.54,10.53.12h.8ZM12,5.69,10.59,2.33,9.2,5.69Z"/><path class="cls-2" d="M25.4,1V5.44a3.8,3.8,0,0,1-3.49,4.09h-.43a4,4,0,0,1-4.29-4.28V1L16.3.18V.12h3.51V.18l-.89.8V5.44c0,2.1,1.08,3.19,2.73,3.19s2.77-1,2.77-3.14V1l-.89-.8V.12h2.84V.18Z"/><path class="cls-2" d="M36.25.58V2.67h0A3.61,3.61,0,0,0,33.08.89c-2,0-3.32,1.59-3.32,3.78v.18a3.55,3.55,0,0,0,3.46,3.86,3.41,3.41,0,0,0,1.34-.27c.44-.18.59-.43.59-1V5.92L33.47,5h3.2V8.29a6.18,6.18,0,0,1-3.51,1.22c-2.73,0-5.08-1.78-5.08-4.73V4.66C28,1.78,30.4,0,33.08,0a9.48,9.48,0,0,1,3.2.58"/><path class="cls-2" d="M48,1V5.44a3.81,3.81,0,0,1-3.51,4.09h-.43a4,4,0,0,1-4.28-4.28V1l-.89-.8V.12h3.56V.18l-.89.8V5.44c0,2.1,1.1,3.19,2.75,3.19s2.78-1,2.78-3.14V1l-.9-.8V.12H49V.18Z"/><path class="cls-2" d="M57,.58V2.67h0A3.66,3.66,0,0,0,54,.89c-1.24,0-1.61.74-1.61,1.29v.07c0,.89.8,1.23,2.1,1.6,2.06.54,3.2,1.39,3.2,3.07V7c0,1.38-1.2,2.68-3.41,2.68a9.66,9.66,0,0,1-3.52-1V6.29h.14c1.07,1.47,2.12,2.4,3.42,2.4S56.2,8,56.2,7.28V7.2c0-1.14-1.1-1.6-2.55-1.92-1.78-.48-2.72-1.36-2.72-2.72V2.47C50.93,1.18,52.12,0,54,0A8.44,8.44,0,0,1,57,.58"/><polygon class="cls-2" points="67.22 2.6 66.06 0.97 63.81 0.97 63.81 8.54 64.73 9.35 64.73 9.38 61.32 9.38 61.32 9.35 62.24 8.54 62.24 0.97 59.98 0.97 58.82 2.6 58.78 2.6 58.78 0.13 67.25 0.13 67.25 2.6 67.22 2.6"/><path class="cls-2" d="M75.85,8.54l.89.8H73.18l.89-.8-.8-2H69.71l-.8,2,.89.8H67.05l.9-.8L71.45.12h.8ZM72.92,5.69,71.48,2.33,70.09,5.69Z"/><path class="cls-2" d="M91.6,1V5.44a3.79,3.79,0,0,1-3.48,4.09h-.45a3.93,3.93,0,0,1-4.26-4.24V1l-1-.8V.12H86V.18l-.89.8V5.44c0,2.1,1.07,3.19,2.75,3.19s2.75-1,2.75-3.14V1l-.89-.8V.12h2.82V.18Z"/><polygon class="cls-2" points="103.54 0.97 103.54 9.38 102.58 9.38 96.42 1.4 96.42 8.54 97.48 9.35 97.48 9.38 94.52 9.38 94.52 9.35 95.44 8.54 95.44 0.97 94.52 0.18 94.52 0.13 97.42 0.13 102.57 6.79 102.57 0.97 101.53 0.18 101.53 0.13 104.44 0.13 104.44 0.18 103.54 0.97"/><polygon class="cls-2" points="109.17 0.97 109.17 8.54 110.08 9.35 110.08 9.38 106.68 9.38 106.68 9.35 107.61 8.54 107.61 0.97 106.68 0.18 106.68 0.13 110.08 0.13 110.08 0.18 109.17 0.97"/><polygon class="cls-2" points="120.22 0.97 116.76 9.38 115.98 9.38 112.42 0.97 111.48 0.18 111.48 0.13 115.06 0.13 115.06 0.18 114.13 0.97 116.72 7.19 119.25 0.97 118.34 0.18 118.34 0.13 121.14 0.13 121.14 0.18 120.22 0.97"/><path class="cls-2" d="M129.8,2.17,129,1h-4v3.2h3l.8-1h0V6h0L128,5h-3V8.09a.41.41,0,0,0,.35.45h3.71l1-1.34h0V9.37h-7.58l.94-.8V1l-.94-.8V.12h7.31V2.17Z"/><path class="cls-2" d="M136,.12c2.67,0,3.66,1.4,3.66,2.59v.16c0,1-.8,2.33-2.85,2.51a4.23,4.23,0,0,1,2,1.92A5.15,5.15,0,0,0,141,9.47h-.42a4.07,4.07,0,0,1-3.69-2.19c-.81-1.3-1.23-1.89-2.22-1.89h-.24V8.54l.89.8H132l.89-.8V1L132,.18V.12Zm-1.54,4.46H136c1.6,0,2-1,2-1.7V2.67c0-.63-.4-1.78-2.12-1.78h-1.42Z"/><path class="cls-2" d="M148.21.58V2.67h0a3.67,3.67,0,0,0-2.9-1.83c-1.24,0-1.65.76-1.65,1.31V2.2c0,.89.8,1.23,2.11,1.6,2.07.54,3.2,1.39,3.2,3.07V7c0,1.37-1.2,2.67-3.4,2.67a9.54,9.54,0,0,1-3.51-.94V6.24h0c1.08,1.47,2.13,2.39,3.43,2.39s1.87-.63,1.87-1.4h0c0-1.14-1.1-1.61-2.54-1.95C143,4.82,142.15,4,142.15,2.61V2.47c0-1.29,1.18-2.47,3.1-2.47a8.5,8.5,0,0,1,2.94.58"/><polygon class="cls-2" points="153.37 0.97 153.37 8.54 154.29 9.35 154.29 9.38 150.88 9.38 150.88 9.35 151.81 8.54 151.81 0.97 150.88 0.18 150.88 0.13 154.29 0.13 154.29 0.18 153.37 0.97"/><polygon class="cls-2" points="164.14 2.6 162.98 0.97 160.72 0.97 160.72 8.54 161.64 9.35 161.64 9.38 158.23 9.38 158.23 9.35 159.14 8.54 159.14 0.97 156.89 0.97 155.74 2.6 155.7 2.6 155.7 0.13 164.16 0.13 164.16 2.6 164.14 2.6"/><polygon class="cls-2" points="173.09 0.97 170.19 5.49 170.19 8.54 171.12 9.35 171.12 9.38 167.7 9.38 167.7 9.35 168.64 8.54 168.64 5.54 165.61 0.97 164.7 0.18 164.7 0.13 168.37 0.13 168.37 0.18 167.46 0.97 169.8 4.48 172.03 0.97 171.11 0.18 171.11 0.13 173.99 0.13 173.99 0.18 173.09 0.97"/><rect class="cls-3" x="0.09" y="17.14" width="179.91" height="1.12"/><rect class="cls-3" y="84.55" width="179.91" height="1.12"/><path class="cls-3" d="M.52,58.81H5.28A6.31,6.31,0,0,1,9.21,59.9a4.44,4.44,0,0,1,.31,6.29h0a2.76,2.76,0,0,1-.3.29,6.33,6.33,0,0,1-3.94,1.1H2.19v7.64H.52Zm1.67,7.31H4.87a7,7,0,0,0,1.88-.26A3.5,3.5,0,0,0,8,65.24a2.24,2.24,0,0,0,.67-.89,2.87,2.87,0,0,0,.22-1.15,3,3,0,0,0-.21-1.1A2.36,2.36,0,0,0,8,61.21a3.17,3.17,0,0,0-1.26-.62,7,7,0,0,0-1.89-.22H2.21Z"/><path class="cls-3" d="M15.15,75.27h-2l7.13-16.46h1.6l7.13,16.42H27.12l-1.78-4.32H16.93Zm2.4-5.85h7.12L21.2,60.8Z"/><path class="cls-3" d="M36.28,75.27H34.59V58.81h5.06a6.37,6.37,0,0,1,4,1.09,3.85,3.85,0,0,1,1.45,3.28,4.11,4.11,0,0,1-1,2.91,4.63,4.63,0,0,1-3.12,1.36l4.72,7.78h-2l-4.51-7.64H36.28Zm0-9.15h2.93a7,7,0,0,0,1.88-.26,3.58,3.58,0,0,0,1.27-.62,2.36,2.36,0,0,0,.68-.89,2.94,2.94,0,0,0,.16-1.17A2.85,2.85,0,0,0,43,62.1a2.55,2.55,0,0,0-.67-.89,3.32,3.32,0,0,0-1.21-.62,7.12,7.12,0,0,0-1.9-.17H36.28Z"/><polygon class="cls-3" points="57.04 75.26 55.36 75.26 55.36 60.39 49.87 60.39 49.87 58.86 62.54 58.86 62.54 60.39 57.04 60.39 57.04 75.26"/><polygon class="cls-3" points="80.25 72.76 80.29 72.76 80.29 58.86 81.96 58.86 81.96 75.26 79.87 75.26 70.09 61.22 70.04 61.22 70.04 75.26 68.37 75.26 68.37 58.86 70.47 58.86 80.25 72.76"/><polygon class="cls-3" points="91.36 73.74 100.16 73.74 100.16 75.26 89.71 75.26 89.71 58.86 99.88 58.86 99.88 60.39 91.36 60.39 91.36 65.98 99.33 65.98 99.33 67.5 91.36 67.5 91.36 73.74"/><path class="cls-3" d="M108.42,75.27h-1.68V58.81h5.06a6.34,6.34,0,0,1,3.94,1.09,3.86,3.86,0,0,1,1.46,3.28,4.1,4.1,0,0,1-1.08,2.89A4.67,4.67,0,0,1,113,67.43l4.72,7.8h-2l-4.46-7.64h-2.78Zm0-9.15h3a7.18,7.18,0,0,0,1.89-.26,3.36,3.36,0,0,0,1.22-.62,2.36,2.36,0,0,0,.68-.89,3.11,3.11,0,0,0,.22-1.08,3.23,3.23,0,0,0-.22-1.11,2.28,2.28,0,0,0-.68-.89,3.07,3.07,0,0,0-1.22-.68,7.13,7.13,0,0,0-1.89-.22h-3Z"/><path class="cls-3" d="M131.55,61.6a3.61,3.61,0,0,0-3.2-1.6,4.53,4.53,0,0,0-1.27.18,3.37,3.37,0,0,0-1.12.52A2.68,2.68,0,0,0,124.85,63a2.45,2.45,0,0,0,.63,1.79,4.82,4.82,0,0,0,1.56,1,14.85,14.85,0,0,0,2,.72,8.94,8.94,0,0,1,2,.89,4.82,4.82,0,0,1,1.54,1.37,4,4,0,0,1,.63,2.34,4.28,4.28,0,0,1-.5,2,4.63,4.63,0,0,1-1.25,1.5,6.19,6.19,0,0,1-3.68,1.25,7.24,7.24,0,0,1-2.86-.58,5.4,5.4,0,0,1-2.3-1.85l1.52-1.09a4.22,4.22,0,0,0,1.49,1.45,4.49,4.49,0,0,0,3.48.34,3.9,3.9,0,0,0,1.13-.58,3.45,3.45,0,0,0,.8-.9,2.63,2.63,0,0,0,.32-1.27,2.77,2.77,0,0,0-.36-1.43,3.09,3.09,0,0,0-1-1,6,6,0,0,0-1.35-.64l-1.49-.62a12.85,12.85,0,0,1-1.61-.58,5.53,5.53,0,0,1-1.34-.8,4,4,0,0,1-1-1.21,5.09,5.09,0,0,1,.1-4,4.3,4.3,0,0,1,1.17-1.44,5.32,5.32,0,0,1,1.7-.89,7.17,7.17,0,0,1,1.95-.27,6.58,6.58,0,0,1,2.53.44,5.49,5.49,0,0,1,2.11,1.55Z"/><polygon class="cls-3" points="139.96 58.86 141.63 58.86 141.63 65.98 150.58 65.98 150.58 58.86 152.25 58.86 152.25 75.26 150.58 75.26 150.58 67.5 141.63 67.5 141.63 75.26 139.96 75.26 139.96 58.86"/><rect class="cls-3" x="160" y="58.86" width="1.68" height="16.4"/><path class="cls-3" d="M169.4,58.81h4.8a6.48,6.48,0,0,1,4,1.09,4.45,4.45,0,0,1,.29,6.29l0,0-.26.26a6.37,6.37,0,0,1-4,1.11h-3.11v7.63h-1.68Zm1.69,7.28h2.67a7.17,7.17,0,0,0,1.9-.23,3.32,3.32,0,0,0,1.23-.62,2.24,2.24,0,0,0,.67-.89,3.09,3.09,0,0,0,.21-1.08,3,3,0,0,0-.21-1.11,2.11,2.11,0,0,0-.67-.89,3.16,3.16,0,0,0-1.23-.61,6.79,6.79,0,0,0-1.9-.24h-2.67Z"/><polygon class="cls-3" points="14.43 48.51 23.97 25.49 28.37 25.49 28.37 53.8 25.48 53.8 25.48 29.34 25.41 29.34 15.18 53.8 13.66 53.8 3.44 29.34 3.35 29.34 3.35 53.8 0.48 53.8 0.48 25.49 4.87 25.49 14.43 48.51"/><polygon class="cls-3" points="40.23 51.15 55.37 51.15 55.37 53.8 37.36 53.8 37.36 25.49 54.9 25.49 54.9 28.13 40.23 28.13 40.23 37.76 53.94 37.76 53.94 40.4 40.23 40.4 40.23 51.15"/><path class="cls-3" d="M62,25.47h9.38a16.5,16.5,0,0,1,5.26.89A14.76,14.76,0,0,1,81.43,29a13.13,13.13,0,0,1,4.79,10.53,13.28,13.28,0,0,1-4.79,10.62,14.76,14.76,0,0,1-4.81,2.67,17.08,17.08,0,0,1-5.26.85H62Zm2.86,25.64h5.6a14.7,14.7,0,0,0,5.6-1,11.68,11.68,0,0,0,4-2.63,10.21,10.21,0,0,0,2.34-3.56,12.33,12.33,0,0,0,0-8.51A10.15,10.15,0,0,0,80,31.76a11.42,11.42,0,0,0-4-2.67,14.71,14.71,0,0,0-5.6-1H64.84Z"/><rect class="cls-3" x="93.3" y="25.49" width="2.88" height="28.29"/><path class="cls-3" d="M128.45,49.31a11.19,11.19,0,0,1-1.78,2,12,12,0,0,1-2.4,1.66,13.62,13.62,0,0,1-3,1.1,13.85,13.85,0,0,1-3.33.4,15.45,15.45,0,0,1-5.85-1.12,14.09,14.09,0,0,1-7.79-7.79,16.43,16.43,0,0,1,0-11.91A14.19,14.19,0,0,1,107.43,29a13.84,13.84,0,0,1,4.68-3.09A15,15,0,0,1,118,24.8a14.38,14.38,0,0,1,5.3,1,10.64,10.64,0,0,1,4.51,3.44l-2.51,1.91a7.11,7.11,0,0,0-1.2-1.37,9.75,9.75,0,0,0-1.78-1.2,11.09,11.09,0,0,0-2.1-.8,8.41,8.41,0,0,0-2.23-.33,11.43,11.43,0,0,0-4.86,1,11,11,0,0,0-3.65,2.68,11.5,11.5,0,0,0-2.31,4,14,14,0,0,0,0,9.31,12.18,12.18,0,0,0,2.31,3.91,10.94,10.94,0,0,0,3.64,2.67,11.72,11.72,0,0,0,4.88,1,12.64,12.64,0,0,0,2.22-.2,9.11,9.11,0,0,0,2.15-.68,7.73,7.73,0,0,0,2-1.3,9.46,9.46,0,0,0,1.78-2.06Z"/><path class="cls-3" d="M134.12,53.8h-3.35l12.35-28.33h2.8L158.2,53.75h-3.36l-3.11-7.41h-14.5Zm4.2-10.08h12.27l-6.14-14.87Z"/><polygon class="cls-3" points="166.21 51.15 179.39 51.15 179.39 53.8 163.34 53.8 163.34 25.49 166.21 25.49 166.21 51.15"/></svg>